{
    "asset" : {
        "generator" : "Khronos glTF Blender I/O v3.3.32",
        "version" : "2.0"
    },
    "scene" : 0,
    "scenes" : [
        {
            "name" : "Scene",
            "nodes" : [
                0,
                1,
                2
            ]
        }
    ],
    "nodes" : [
        {
            "mesh" : 0,
            "name" : "donut",
            "scale" : [
                0.5764540433883667,
                0.5764540433883667,
                0.5764540433883667
            ],
            "translation" : [
                0,
                0.3468466103076935,
                0
            ]
        },
        {
            "mesh" : 1,
            "name" : "icing",
            "scale" : [
                0.5764540433883667,
                0.5764540433883667,
                0.5764540433883667
            ],
            "translation" : [
                0,
                0.3468466103076935,
                0
            ]
        },
        {
            "mesh" : 2,
            "name" : "Plane",
            "scale" : [
                48.4334602355957,
                48.4334602355957,
                48.4334602355957
            ]
        }
    ],
    "materials" : [
        {
            "doubleSided" : true,
            "name" : "Material.002",
            "pbrMetallicRoughness" : {
                "baseColorFactor" : [
                    0.8000000715255737,
                    0.40531954169273376,
                    0.23995335400104523,
                    1
                ],
                "metallicFactor" : 0
            }
        },
        {
            "doubleSided" : true,
            "name" : "Material.001",
            "pbrMetallicRoughness" : {
                "baseColorFactor" : [
                    0.8000000715255737,
                    0.3292648494243622,
                    0.508145272731781,
                    1
                ],
                "metallicFactor" : 0,
                "roughnessFactor" : 0.1718750149011612
            }
        },
        {
            "doubleSided" : true,
            "name" : "Material.003",
            "pbrMetallicRoughness" : {
                "baseColorFactor" : [
                    0.5001142024993896,
                    0.5674645304679871,
                    0.8000000715255737,
                    1
                ],
                "metallicFactor" : 0,
                "roughnessFactor" : 0.5
            }
        }
    ],
    "meshes" : [
        {
            "name" : "Torus",
            "primitives" : [
                {
                    "attributes" : {
                        "POSITION" : 0,
                        "NORMAL" : 1,
                        "TEXCOORD_0" : 2
                    },
                    "indices" : 3,
                    "material" : 0
                }
            ]
        },
        {
            "name" : "Torus.001",
            "primitives" : [
                {
                    "attributes" : {
                        "POSITION" : 4,
                        "NORMAL" : 5,
                        "TEXCOORD_0" : 6
                    },
                    "indices" : 7,
                    "material" : 1
                }
            ]
        },
        {
            "name" : "Plane",
            "primitives" : [
                {
                    "attributes" : {
                        "POSITION" : 8,
                        "NORMAL" : 9,
                        "TEXCOORD_0" : 10
                    },
                    "indices" : 11,
                    "material" : 2
                }
            ]
        }
    ],
    "accessors" : [
        {
            "bufferView" : 0,
            "componentType" : 5126,
            "count" : 1517,
            "max" : [
                1.4728221893310547,
                0.7569870948791504,
                1.4618827104568481
            ],
            "min" : [
                -1.4124927520751953,
                -0.6771868467330933,
                -1.420128345489502
            ],
            "type" : "VEC3"
        },
        {
            "bufferView" : 1,
            "componentType" : 5126,
            "count" : 1517,
            "type" : "VEC3"
        },
        {
            "bufferView" : 2,
            "componentType" : 5126,
            "count" : 1517,
            "type" : "VEC2"
        },
        {
            "bufferView" : 3,
            "componentType" : 5123,
            "count" : 8640,
            "type" : "SCALAR"
        },
        {
            "bufferView" : 4,
            "componentType" : 5126,
            "count" : 19476,
            "max" : [
                1.531864881515503,
                0.8540613055229187,
                1.5115644931793213
            ],
            "min" : [
                -1.443857192993164,
                -0.3809117078781128,
                -1.4724303483963013
            ],
            "type" : "VEC3"
        },
        {
            "bufferView" : 5,
            "componentType" : 5126,
            "count" : 19476,
            "type" : "VEC3"
        },
        {
            "bufferView" : 6,
            "componentType" : 5126,
            "count" : 19476,
            "type" : "VEC2"
        },
        {
            "bufferView" : 7,
            "componentType" : 5123,
            "count" : 116160,
            "type" : "SCALAR"
        },
        {
            "bufferView" : 8,
            "componentType" : 5126,
            "count" : 4,
            "max" : [
                1,
                0,
                1
            ],
            "min" : [
                -1,
                0,
                -1
            ],
            "type" : "VEC3"
        },
        {
            "bufferView" : 9,
            "componentType" : 5126,
            "count" : 4,
            "type" : "VEC3"
        },
        {
            "bufferView" : 10,
            "componentType" : 5126,
            "count" : 4,
            "type" : "VEC2"
        },
        {
            "bufferView" : 11,
            "componentType" : 5123,
            "count" : 6,
            "type" : "SCALAR"
        }
    ],
    "bufferViews" : [
        {
            "buffer" : 0,
            "byteLength" : 18204,
            "byteOffset" : 0,
            "target" : 34962
        },
        {
            "buffer" : 0,
            "byteLength" : 18204,
            "byteOffset" : 18204,
            "target" : 34962
        },
        {
            "buffer" : 0,
            "byteLength" : 12136,
            "byteOffset" : 36408,
            "target" : 34962
        },
        {
            "buffer" : 0,
            "byteLength" : 17280,
            "byteOffset" : 48544,
            "target" : 34963
        },
        {
            "buffer" : 0,
            "byteLength" : 233712,
            "byteOffset" : 65824,
            "target" : 34962
        },
        {
            "buffer" : 0,
            "byteLength" : 233712,
            "byteOffset" : 299536,
            "target" : 34962
        },
        {
            "buffer" : 0,
            "byteLength" : 155808,
            "byteOffset" : 533248,
            "target" : 34962
        },
        {
            "buffer" : 0,
            "byteLength" : 232320,
            "byteOffset" : 689056,
            "target" : 34963
        },
        {
            "buffer" : 0,
            "byteLength" : 48,
            "byteOffset" : 921376,
            "target" : 34962
        },
        {
            "buffer" : 0,
            "byteLength" : 48,
            "byteOffset" : 921424,
            "target" : 34962
        },
        {
            "buffer" : 0,
            "byteLength" : 32,
            "byteOffset" : 921472,
            "target" : 34962
        },
        {
            "buffer" : 0,
            "byteLength" : 12,
            "byteOffset" : 921504,
            "target" : 34963
        }
    ],
    "buffers" : [
        {
            "byteLength" : 921516,
            "uri" : "data:application/octet-stream;base64,"
        }
    ]
}
